<?xml version="1.0" standalone="no"?>
<!DOCTYPE svg PUBLIC "-//W3C//DTD SVG 20010904//EN"
 "http://www.w3.org/TR/2001/REC-SVG-20010904/DTD/svg10.dtd">
<svg version="1.0" xmlns="http://www.w3.org/2000/svg"
 width="700.000000pt" height="700.000000pt" viewBox="0 0 700.000000 700.000000"
 preserveAspectRatio="xMidYMid meet">
<metadata>
Created by potrace 1.14, written by Peter Selinger 2001-2017
</metadata>
<g transform="translate(0.000000,700.000000) scale(0.100000,-0.100000)"
fill="#000000" stroke="none">
<path d="M0 3500 l0 -3500 3500 0 3500 0 0 3500 0 3500 -3500 0 -3500 0 0
-3500z m6380 0 l0 -2880 -2880 0 -2880 0 0 2880 0 2880 2880 0 2880 0 0 -2880z"/>
<path d="M780 3500 l0 -2720 2720 0 2720 0 0 2720 0 2720 -2720 0 -2720 0 0
-2720z m1412 550 c159 -668 291 -1221 294 -1229 2 -8 7 -12 9 -9 3 2 131 540
285 1194 155 654 285 1206 291 1227 l10 37 418 0 419 0 12 -47 c6 -27 135
-572 286 -1213 151 -641 277 -1174 281 -1184 4 -15 7 -16 13 -5 4 8 137 562
296 1231 l289 1218 413 0 414 0 -7 -27 c-3 -16 -183 -777 -399 -1693 l-393
-1665 -504 -3 -504 -2 -304 1277 c-167 703 -308 1284 -311 1292 -5 8 -23 -51
-44 -140 -20 -85 -157 -665 -305 -1289 l-268 -1135 -504 -3 -504 -2 -399 1682
c-220 926 -402 1689 -404 1696 -3 10 81 12 414 10 l418 -3 288 -1215z"/>
</g>
</svg>
